<?xml version="1.0" encoding="UTF-8"?>
<!DOCTYPE svg PUBLIC "-//W3C//DTD SVG 1.1//EN" "http://www.w3.org/Graphics/SVG/1.1/DTD/svg11.dtd">
<svg xmlns="http://www.w3.org/2000/svg" version="1.1" width="60px" height="60px" style="shape-rendering:geometricPrecision; text-rendering:geometricPrecision; image-rendering:optimizeQuality; fill-rule:evenodd; clip-rule:evenodd" xmlns:xlink="http://www.w3.org/1999/xlink">
<g><path style="opacity:0.997" fill="#92a11c" d="M 0.5,-0.5 C 19.8333,-0.5 39.1667,-0.5 58.5,-0.5C 58.5,0.166667 58.8333,0.5 59.5,0.5C 59.5,19.8333 59.5,39.1667 59.5,58.5C 58.8333,58.5 58.5,58.8333 58.5,59.5C 39.1667,59.5 19.8333,59.5 0.5,59.5C 0.5,58.8333 0.166667,58.5 -0.5,58.5C -0.5,39.1667 -0.5,19.8333 -0.5,0.5C 0.166667,0.5 0.5,0.166667 0.5,-0.5 Z"/></g>
<g><path style="opacity:1" fill="#fcfdf9" d="M 24.5,12.5 C 31.2667,11.0178 36.6,13.0178 40.5,18.5C 33.1667,25.1667 25.8333,25.1667 18.5,18.5C 20.215,16.1182 22.215,14.1182 24.5,12.5 Z"/></g>
<g><path style="opacity:1" fill="#fcfcf8" d="M 15.5,21.5 C 19.345,23.923 23.345,26.0897 27.5,28C 25.26,34.2223 22.9267,40.389 20.5,46.5C 12.0895,39.576 10.4228,31.2427 15.5,21.5 Z"/></g>
<g><path style="opacity:1" fill="#fcfcf8" d="M 42.5,21.5 C 47.2655,27.6764 47.7655,34.3431 44,41.5C 42.3163,43.3513 40.4829,45.018 38.5,46.5C 36.0733,40.389 33.74,34.2223 31.5,28C 35.5095,26.2886 39.1762,24.1219 42.5,21.5 Z"/></g>
<g><path style="opacity:1" fill="#eceed7" d="M 27.5,35.5 C 28.8734,35.3433 30.2068,35.51 31.5,36C 32.4506,36.7175 32.6172,37.5509 32,38.5C 28.0539,40.3597 26.5539,39.3597 27.5,35.5 Z"/></g>
<g><path style="opacity:1" fill="#fdfcfa" d="M 25.5,41.5 C 28.1667,41.5 30.8333,41.5 33.5,41.5C 33.5,42.5 33.5,43.5 33.5,44.5C 30.8333,44.5 28.1667,44.5 25.5,44.5C 25.5,43.5 25.5,42.5 25.5,41.5 Z"/></g>
</svg>
