<?xml version="1.0" encoding="UTF-8"?>
<!DOCTYPE svg PUBLIC "-//W3C//DTD SVG 1.1//EN" "http://www.w3.org/Graphics/SVG/1.1/DTD/svg11.dtd">
<svg xmlns="http://www.w3.org/2000/svg" version="1.1" width="60px" height="60px" style="shape-rendering:geometricPrecision; text-rendering:geometricPrecision; image-rendering:optimizeQuality; fill-rule:evenodd; clip-rule:evenodd" xmlns:xlink="http://www.w3.org/1999/xlink">
<g><path style="opacity:0.997" fill="#50413f" d="M 0.5,-0.5 C 19.8333,-0.5 39.1667,-0.5 58.5,-0.5C 58.5,0.166667 58.8333,0.5 59.5,0.5C 59.5,19.8333 59.5,39.1667 59.5,58.5C 58.8333,58.5 58.5,58.8333 58.5,59.5C 39.1667,59.5 19.8333,59.5 0.5,59.5C 0.5,58.8333 0.166667,58.5 -0.5,58.5C -0.5,39.1667 -0.5,19.8333 -0.5,0.5C 0.166667,0.5 0.5,0.166667 0.5,-0.5 Z"/></g>
<g><path style="opacity:1" fill="#f6f6f5" d="M 15.5,19.5 C 17.5551,20.9477 19.7218,22.281 22,23.5C 22.2077,27.9177 22.8744,32.251 24,36.5C 27.6667,40.5 31.3333,40.5 35,36.5C 36.3092,31.9342 36.8092,27.2675 36.5,22.5C 39.0991,22.4506 41.2658,21.4506 43,19.5C 49.234,29.5733 47.0674,37.4066 36.5,43C 26.0037,46.3331 18.1704,43.1664 13,33.5C 11.8058,28.3686 12.6391,23.7019 15.5,19.5 Z"/></g>
<g><path style="opacity:1" fill="#f2f0f0" d="M 27.5,24.5 C 29.1439,24.2865 30.6439,24.6198 32,25.5C 32.6667,27.8333 32.6667,30.1667 32,32.5C 30.3333,35.1667 28.6667,35.1667 27,32.5C 26.2782,29.7395 26.4448,27.0728 27.5,24.5 Z"/></g>
</svg>
