<?xml version="1.0" encoding="UTF-8"?>
<!DOCTYPE svg PUBLIC "-//W3C//DTD SVG 1.1//EN" "http://www.w3.org/Graphics/SVG/1.1/DTD/svg11.dtd">
<svg xmlns="http://www.w3.org/2000/svg" version="1.1" width="60px" height="60px" style="shape-rendering:geometricPrecision; text-rendering:geometricPrecision; image-rendering:optimizeQuality; fill-rule:evenodd; clip-rule:evenodd" xmlns:xlink="http://www.w3.org/1999/xlink">
<g><path style="opacity:0.996" fill="#5160e0" d="M 0.5,-0.5 C 19.8333,-0.5 39.1667,-0.5 58.5,-0.5C 58.5,0.166667 58.8333,0.5 59.5,0.5C 59.5,19.8333 59.5,39.1667 59.5,58.5C 58.8333,58.5 58.5,58.8333 58.5,59.5C 39.1667,59.5 19.8333,59.5 0.5,59.5C 0.5,58.8333 0.166667,58.5 -0.5,58.5C -0.5,39.1667 -0.5,19.8333 -0.5,0.5C 0.166667,0.5 0.5,0.166667 0.5,-0.5 Z"/></g>
<g><path style="opacity:1" fill="#f7f8fd" d="M 26.5,14.5 C 26.5,15.8333 26.5,17.1667 26.5,18.5C 28.5,18.5 30.5,18.5 32.5,18.5C 32.5,17.1667 32.5,15.8333 32.5,14.5C 32.2308,12.5714 32.7308,10.9047 34,9.5C 35.7799,15.9348 37.6132,22.2681 39.5,28.5C 39.6571,32.8515 38.1571,36.5182 35,39.5C 34.6667,42.1667 34.3333,44.8333 34,47.5C 31,50.1667 28,50.1667 25,47.5C 24.6667,44.8333 24.3333,42.1667 24,39.5C 20.8429,36.5182 19.3429,32.8515 19.5,28.5C 21.4298,23.0483 22.9298,17.3816 24,11.5C 24.3173,9.69923 24.984,9.36589 26,10.5C 26.49,11.7932 26.6567,13.1266 26.5,14.5 Z"/></g>
<g><path style="opacity:1" fill="#b7baf1" d="M 26.5,14.5 C 27.404,15.209 27.7373,16.209 27.5,17.5C 28.8333,17.5 30.1667,17.5 31.5,17.5C 31.2627,16.209 31.596,15.209 32.5,14.5C 32.5,15.8333 32.5,17.1667 32.5,18.5C 30.5,18.5 28.5,18.5 26.5,18.5C 26.5,17.1667 26.5,15.8333 26.5,14.5 Z"/></g>
<g><path style="opacity:1" fill="#f4f3fd" d="M 12.5,21.5 C 14.1292,26.458 16.1292,31.458 18.5,36.5C 15.6913,44.303 13.1913,43.9696 11,35.5C 10.1188,30.6423 10.6188,25.9756 12.5,21.5 Z"/></g>
<g><path style="opacity:1" fill="#f4f3fd" d="M 45.5,21.5 C 47.8597,23.9109 48.8597,26.9109 48.5,30.5C 48.6693,35.1624 47.1693,39.1624 44,42.5C 39.5028,37.3829 39.8361,32.3829 45,27.5C 45.4955,25.5273 45.6621,23.5273 45.5,21.5 Z"/></g>
<g><path style="opacity:1" fill="#6b75e4" d="M 20.5,27.5 C 22.6009,30.1789 24.6009,33.0123 26.5,36C 21.7663,35.4317 19.7663,32.5984 20.5,27.5 Z"/></g>
<g><path style="opacity:1" fill="#6d77e4" d="M 37.5,27.5 C 38.7645,29.7721 38.5978,32.1055 37,34.5C 35.6626,35.7649 34.1626,36.2649 32.5,36C 34.5564,33.3859 36.2231,30.5525 37.5,27.5 Z"/></g>
</svg>
