<?xml version="1.0" encoding="UTF-8"?>
<!DOCTYPE svg PUBLIC "-//W3C//DTD SVG 1.1//EN" "http://www.w3.org/Graphics/SVG/1.1/DTD/svg11.dtd">
<svg xmlns="http://www.w3.org/2000/svg" version="1.1" width="60px" height="60px" style="shape-rendering:geometricPrecision; text-rendering:geometricPrecision; image-rendering:optimizeQuality; fill-rule:evenodd; clip-rule:evenodd" xmlns:xlink="http://www.w3.org/1999/xlink">
<g><path style="opacity:0.997" fill="#f9c001" d="M 0.5,-0.5 C 19.8333,-0.5 39.1667,-0.5 58.5,-0.5C 58.5,0.166667 58.8333,0.5 59.5,0.5C 59.5,19.8333 59.5,39.1667 59.5,58.5C 58.8333,58.5 58.5,58.8333 58.5,59.5C 39.1667,59.5 19.8333,59.5 0.5,59.5C 0.5,58.8333 0.166667,58.5 -0.5,58.5C -0.5,39.1667 -0.5,19.8333 -0.5,0.5C 0.166667,0.5 0.5,0.166667 0.5,-0.5 Z"/></g>
<g><path style="opacity:1" fill="#fffdf7" d="M 28.5,10.5 C 33.1051,12.4711 37.4385,14.9711 41.5,18C 39.0213,21.3132 36.3546,24.4798 33.5,27.5C 35.1491,29.6499 36.9824,31.6499 39,33.5C 39.6667,34.1667 39.6667,34.8333 39,35.5C 34.6667,39.8333 30.3333,44.1667 26,48.5C 26.2629,44.3958 26.9296,40.3958 28,36.5C 24.1935,34.0176 20.6935,31.1843 17.5,28C 20.5845,21.7597 24.2512,15.9264 28.5,10.5 Z"/></g>
</svg>
