<?xml version="1.0" encoding="UTF-8"?>
<!DOCTYPE svg PUBLIC "-//W3C//DTD SVG 1.1//EN" "http://www.w3.org/Graphics/SVG/1.1/DTD/svg11.dtd">
<svg xmlns="http://www.w3.org/2000/svg" version="1.1" width="60px" height="60px" style="shape-rendering:geometricPrecision; text-rendering:geometricPrecision; image-rendering:optimizeQuality; fill-rule:evenodd; clip-rule:evenodd" xmlns:xlink="http://www.w3.org/1999/xlink">
<g><path style="opacity:0.997" fill="#ef70ef" d="M 0.5,-0.5 C 19.8333,-0.5 39.1667,-0.5 58.5,-0.5C 58.5,0.166667 58.8333,0.5 59.5,0.5C 59.5,19.8333 59.5,39.1667 59.5,58.5C 58.8333,58.5 58.5,58.8333 58.5,59.5C 39.1667,59.5 19.8333,59.5 0.5,59.5C 0.5,58.8333 0.166667,58.5 -0.5,58.5C -0.5,39.1667 -0.5,19.8333 -0.5,0.5C 0.166667,0.5 0.5,0.166667 0.5,-0.5 Z"/></g>
<g><path style="opacity:1" fill="#fefafe" d="M 30.5,40.5 C 29.8333,36.5 29.1667,36.5 28.5,40.5C 27.8122,43.0573 26.6455,45.3907 25,47.5C 24.3399,44.4665 24.8399,41.6331 26.5,39C 23.9739,39.6317 21.4739,39.4651 19,38.5C 18.2438,36.1913 18.7438,34.1913 20.5,32.5C 15.5362,28.7932 13.3695,23.7932 14,17.5C 19.92,14.9584 25.0867,16.2917 29.5,21.5C 33.9133,16.2917 39.08,14.9584 45,17.5C 45.6305,23.7932 43.4638,28.7932 38.5,32.5C 40.2562,34.1913 40.7562,36.1913 40,38.5C 37.5261,39.4651 35.0261,39.6317 32.5,39C 34.1601,41.6331 34.6601,44.4665 34,47.5C 32.3545,45.3907 31.1878,43.0573 30.5,40.5 Z"/></g>
<g><path style="opacity:1" fill="#f079f0" d="M 28.5,24.5 C 30.2976,26.1122 32.2976,27.6122 34.5,29C 31.4741,32.0887 28.3074,32.2554 25,29.5C 26.1992,28.0543 27.3659,26.3877 28.5,24.5 Z"/></g>
<g><path style="opacity:1" fill="#f7b4f7" d="M 30.5,40.5 C 29.8333,40.5 29.1667,40.5 28.5,40.5C 29.1667,36.5 29.8333,36.5 30.5,40.5 Z"/></g>
</svg>
