<?xml version="1.0" encoding="UTF-8"?>
<!DOCTYPE svg PUBLIC "-//W3C//DTD SVG 1.1//EN" "http://www.w3.org/Graphics/SVG/1.1/DTD/svg11.dtd">
<svg xmlns="http://www.w3.org/2000/svg" version="1.1" width="60px" height="60px" style="shape-rendering:geometricPrecision; text-rendering:geometricPrecision; image-rendering:optimizeQuality; fill-rule:evenodd; clip-rule:evenodd" xmlns:xlink="http://www.w3.org/1999/xlink">
<g><path style="opacity:0.997" fill="#ff8208" d="M 0.5,-0.5 C 19.8333,-0.5 39.1667,-0.5 58.5,-0.5C 58.5,0.166667 58.8333,0.5 59.5,0.5C 59.5,19.8333 59.5,39.1667 59.5,58.5C 58.8333,58.5 58.5,58.8333 58.5,59.5C 39.1667,59.5 19.8333,59.5 0.5,59.5C 0.5,58.8333 0.166667,58.5 -0.5,58.5C -0.5,39.1667 -0.5,19.8333 -0.5,0.5C 0.166667,0.5 0.5,0.166667 0.5,-0.5 Z"/></g>
<g><path style="opacity:1" fill="#fffdfc" d="M 22.5,12.5 C 24.1667,12.5 25.8333,12.5 27.5,12.5C 27.8282,17.8746 27.4948,23.2079 26.5,28.5C 25.5,29.8333 24.5,29.8333 23.5,28.5C 22.5052,23.2079 22.1718,17.8746 22.5,12.5 Z"/></g>
<g><path style="opacity:1" fill="#fffefd" d="M 31.5,12.5 C 33.1667,12.5 34.8333,12.5 36.5,12.5C 36.5,16.1667 36.5,19.8333 36.5,23.5C 34.8333,23.5 33.1667,23.5 31.5,23.5C 31.5,19.8333 31.5,16.1667 31.5,12.5 Z"/></g>
<g><path style="opacity:1" fill="#fff8f2" d="M 39.5,12.5 C 41.5,12.5 43.5,12.5 45.5,12.5C 45.5,16.1667 45.5,19.8333 45.5,23.5C 43.5,23.5 41.5,23.5 39.5,23.5C 39.5,19.8333 39.5,16.1667 39.5,12.5 Z"/></g>
<g><path style="opacity:1" fill="#fff4ea" d="M 14.5,11.5 C 16.1439,11.2865 17.6439,11.6198 19,12.5C 19.8295,17.8643 19.6628,23.1977 18.5,28.5C 17.1667,29.8333 15.8333,29.8333 14.5,28.5C 13.2149,22.7799 13.2149,17.1133 14.5,11.5 Z"/></g>
<g><path style="opacity:1" fill="#fffaf6" d="M 31.5,26.5 C 36.1667,26.5 40.8333,26.5 45.5,26.5C 45.5,28.8333 45.5,31.1667 45.5,33.5C 41.1539,33.6657 36.8206,33.499 32.5,33C 31.5769,30.9592 31.2436,28.7925 31.5,26.5 Z"/></g>
<g><path style="opacity:1" fill="#fffaf6" d="M 13.5,33.5 C 24.1547,34.322 34.8213,34.9887 45.5,35.5C 45.7394,37.4672 45.4061,39.3005 44.5,41C 36.934,44.9718 28.934,46.6384 20.5,46C 18.3333,44.5 16.1667,43 14,41.5C 13.5026,38.854 13.3359,36.1873 13.5,33.5 Z"/></g>
</svg>
