<?xml version="1.0" encoding="UTF-8"?>
<!DOCTYPE svg PUBLIC "-//W3C//DTD SVG 1.1//EN" "http://www.w3.org/Graphics/SVG/1.1/DTD/svg11.dtd">
<svg xmlns="http://www.w3.org/2000/svg" version="1.1" width="60px" height="60px" style="shape-rendering:geometricPrecision; text-rendering:geometricPrecision; image-rendering:optimizeQuality; fill-rule:evenodd; clip-rule:evenodd" xmlns:xlink="http://www.w3.org/1999/xlink">
<g><path style="opacity:0.997" fill="#e6292a" d="M 0.5,-0.5 C 19.8333,-0.5 39.1667,-0.5 58.5,-0.5C 58.5,0.166667 58.8333,0.5 59.5,0.5C 59.5,19.8333 59.5,39.1667 59.5,58.5C 58.8333,58.5 58.5,58.8333 58.5,59.5C 39.1667,59.5 19.8333,59.5 0.5,59.5C 0.5,58.8333 0.166667,58.5 -0.5,58.5C -0.5,39.1667 -0.5,19.8333 -0.5,0.5C 0.166667,0.5 0.5,0.166667 0.5,-0.5 Z"/></g>
<g><path style="opacity:1" fill="#fef5f5" d="M 25.5,12.5 C 28.3172,11.1632 30.8172,11.8299 33,14.5C 32.8751,19.1964 32.5418,23.8631 32,28.5C 32.3333,28.8333 32.6667,29.1667 33,29.5C 32.4894,25.0249 34.3227,22.8582 38.5,23C 37.4238,24.7261 37.2571,26.5594 38,28.5C 44.6555,36.0618 43.4888,42.2284 34.5,47C 28.8458,47.988 28.3458,47.1547 33,44.5C 33.6667,42.8333 33.6667,41.1667 33,39.5C 28.2296,36.4093 25.563,32.076 25,26.5C 23.1706,28.1558 21.8372,30.1558 21,32.5C 20.4816,36.5753 20.4816,40.5753 21,44.5C 17.0679,40.9685 15.7346,36.6351 17,31.5C 20.1347,26.057 23.6347,20.8903 27.5,16C 27.1918,14.5405 26.5251,13.3739 25.5,12.5 Z"/></g>
</svg>
