<?xml version="1.0" encoding="UTF-8"?>
<!DOCTYPE svg PUBLIC "-//W3C//DTD SVG 1.1//EN" "http://www.w3.org/Graphics/SVG/1.1/DTD/svg11.dtd">
<svg xmlns="http://www.w3.org/2000/svg" version="1.1" width="60px" height="60px" style="shape-rendering:geometricPrecision; text-rendering:geometricPrecision; image-rendering:optimizeQuality; fill-rule:evenodd; clip-rule:evenodd" xmlns:xlink="http://www.w3.org/1999/xlink">
<g><path style="opacity:0.997" fill="#704170" d="M 0.5,-0.5 C 19.8333,-0.5 39.1667,-0.5 58.5,-0.5C 58.5,0.166667 58.8333,0.5 59.5,0.5C 59.5,19.8333 59.5,39.1667 59.5,58.5C 58.8333,58.5 58.5,58.8333 58.5,59.5C 39.1667,59.5 19.8333,59.5 0.5,59.5C 0.5,58.8333 0.166667,58.5 -0.5,58.5C -0.5,39.1667 -0.5,19.8333 -0.5,0.5C 0.166667,0.5 0.5,0.166667 0.5,-0.5 Z"/></g>
<g><path style="opacity:1" fill="#f9f7f9" d="M 24.5,13.5 C 36.4928,12.1618 42.4928,17.4951 42.5,29.5C 47.6844,28.6816 49.6844,30.6816 48.5,35.5C 47.8333,35.1667 47.1667,34.8333 46.5,34.5C 44.8892,38.5246 42.5559,39.1913 39.5,36.5C 32.8333,48.5 26.1667,48.5 19.5,36.5C 16.4441,39.1913 14.1108,38.5246 12.5,34.5C 11.1374,35.8793 10.1374,35.7126 9.5,34C 10.2078,30.0778 12.5411,28.5778 16.5,29.5C 16.5465,22.7398 19.2132,17.4065 24.5,13.5 Z"/></g>
<g><path style="opacity:1" fill="#7e537d" d="M 22.5,19.5 C 24.0174,19.5106 25.1841,20.1772 26,21.5C 26.4955,23.4727 26.6621,25.4727 26.5,27.5C 22.5092,26.1851 21.1759,23.5184 22.5,19.5 Z"/></g>
<g><path style="opacity:1" fill="#7e537d" d="M 34.5,19.5 C 36.2517,19.4176 37.2517,20.2509 37.5,22C 37.056,25.1182 35.3893,26.9515 32.5,27.5C 32.1072,24.4867 32.7739,21.8201 34.5,19.5 Z"/></g>
</svg>
