<?xml version="1.0" encoding="UTF-8"?>
<!DOCTYPE svg PUBLIC "-//W3C//DTD SVG 1.1//EN" "http://www.w3.org/Graphics/SVG/1.1/DTD/svg11.dtd">
<svg xmlns="http://www.w3.org/2000/svg" version="1.1" width="60px" height="60px" style="shape-rendering:geometricPrecision; text-rendering:geometricPrecision; image-rendering:optimizeQuality; fill-rule:evenodd; clip-rule:evenodd" xmlns:xlink="http://www.w3.org/1999/xlink">
<g><path style="opacity:0.997" fill="#915122" d="M 0.5,-0.5 C 19.8333,-0.5 39.1667,-0.5 58.5,-0.5C 58.5,0.166667 58.8333,0.5 59.5,0.5C 59.5,19.8333 59.5,39.1667 59.5,58.5C 58.8333,58.5 58.5,58.8333 58.5,59.5C 39.1667,59.5 19.8333,59.5 0.5,59.5C 0.5,58.8333 0.166667,58.5 -0.5,58.5C -0.5,39.1667 -0.5,19.8333 -0.5,0.5C 0.166667,0.5 0.5,0.166667 0.5,-0.5 Z"/></g>
<g><path style="opacity:1" fill="#faf5f4" d="M 15.5,12.5 C 17.5,12.5 19.5,12.5 21.5,12.5C 21.5,14.5 21.5,16.5 21.5,18.5C 19.5,18.5 17.5,18.5 15.5,18.5C 15.5,16.5 15.5,14.5 15.5,12.5 Z"/></g>
<g><path style="opacity:1" fill="#f0e7e3" d="M 37.5,16.5 C 39.1667,16.5 40.8333,16.5 42.5,16.5C 42.5,18.1667 42.5,19.8333 42.5,21.5C 40.8333,21.5 39.1667,21.5 37.5,21.5C 37.5,19.8333 37.5,18.1667 37.5,16.5 Z"/></g>
<g><path style="opacity:1" fill="#efe8e1" d="M 23.5,19.5 C 24.8333,19.5 26.1667,19.5 27.5,19.5C 27.5,20.8333 27.5,22.1667 27.5,23.5C 26.1667,23.5 24.8333,23.5 23.5,23.5C 23.5,22.1667 23.5,20.8333 23.5,19.5 Z"/></g>
<g><path style="opacity:1" fill="#faf7f5" d="M 26.5,26.5 C 33.5367,27.0662 39.87,29.3995 45.5,33.5C 39.6884,38.2362 33.0218,40.4028 25.5,40C 21.1622,38.4978 17.1622,36.4978 13.5,34C 13.6448,33.228 13.9781,32.5613 14.5,32C 18.6097,30.2487 22.6097,28.4153 26.5,26.5 Z"/></g>
<g><path style="opacity:1" fill="#f1e6e2" d="M 12.5,37.5 C 18.057,40.0212 23.7237,42.3545 29.5,44.5C 34.9969,42.0885 40.4969,39.7552 46,37.5C 46.1667,38 46.3333,38.5 46.5,39C 41.3215,42.5888 35.6549,45.0888 29.5,46.5C 23.9871,45.2857 18.6538,43.4524 13.5,41C 12.6634,39.9887 12.33,38.8221 12.5,37.5 Z"/></g>
</svg>
