<?xml version="1.0" encoding="UTF-8"?>
<!DOCTYPE svg PUBLIC "-//W3C//DTD SVG 1.1//EN" "http://www.w3.org/Graphics/SVG/1.1/DTD/svg11.dtd">
<svg xmlns="http://www.w3.org/2000/svg" version="1.1" width="60px" height="60px" style="shape-rendering:geometricPrecision; text-rendering:geometricPrecision; image-rendering:optimizeQuality; fill-rule:evenodd; clip-rule:evenodd" xmlns:xlink="http://www.w3.org/1999/xlink">
<g><path style="opacity:0.997" fill="#41d8ff" d="M 0.5,-0.5 C 19.8333,-0.5 39.1667,-0.5 58.5,-0.5C 58.5,0.166667 58.8333,0.5 59.5,0.5C 59.5,19.8333 59.5,39.1667 59.5,58.5C 58.8333,58.5 58.5,58.8333 58.5,59.5C 39.1667,59.5 19.8333,59.5 0.5,59.5C 0.5,58.8333 0.166667,58.5 -0.5,58.5C -0.5,39.1667 -0.5,19.8333 -0.5,0.5C 0.166667,0.5 0.5,0.166667 0.5,-0.5 Z"/></g>
<g><path style="opacity:1" fill="#fefffe" d="M 13.5,18.5 C 15.1667,18.5 16.8333,18.5 18.5,18.5C 18.5,20.1667 18.5,21.8333 18.5,23.5C 18.5,21.8333 18.5,20.1667 18.5,18.5C 16.8333,18.5 15.1667,18.5 13.5,18.5 Z"/></g>
<g><path style="opacity:1" fill="#f8fdff" d="M 39.5,23.5 C 39.5,27.5 39.5,31.5 39.5,35.5C 36.7765,37.2812 33.9432,38.9479 31,40.5C 31.0275,42.4174 31.8608,44.084 33.5,45.5C 30.8333,50.8333 28.1667,50.8333 25.5,45.5C 27.1392,44.084 27.9725,42.4174 28,40.5C 25.0568,38.9479 22.2235,37.2812 19.5,35.5C 19.5,31.5 19.5,27.5 19.5,23.5C 22.2235,21.7188 25.0568,20.0521 28,18.5C 27.9725,16.5826 27.1392,14.916 25.5,13.5C 28.1667,8.16667 30.8333,8.16667 33.5,13.5C 31.8608,14.916 31.0275,16.5826 31,18.5C 33.9432,20.0521 36.7765,21.7188 39.5,23.5 Z"/></g>
<g><path style="opacity:1" fill="#fefffe" d="M 45.5,18.5 C 45.5,20.1667 45.5,21.8333 45.5,23.5C 43.8333,23.5 42.1667,23.5 40.5,23.5C 40.5,21.8333 40.5,20.1667 40.5,18.5C 42.1667,18.5 43.8333,18.5 45.5,18.5 Z"/></g>
<g><path style="opacity:1" fill="#c9f4ff" d="M 13.5,18.5 C 15.2646,17.5386 17.2646,17.2053 19.5,17.5C 19.5,19.5 19.5,21.5 19.5,23.5C 19.1667,23.5 18.8333,23.5 18.5,23.5C 18.5,21.8333 18.5,20.1667 18.5,18.5C 16.8333,18.5 15.1667,18.5 13.5,18.5 Z"/></g>
<g><path style="opacity:1" fill="#c9f4ff" d="M 45.5,18.5 C 43.8333,18.5 42.1667,18.5 40.5,18.5C 40.5,20.1667 40.5,21.8333 40.5,23.5C 40.1667,23.5 39.8333,23.5 39.5,23.5C 39.5,21.5 39.5,19.5 39.5,17.5C 41.7354,17.2053 43.7354,17.5386 45.5,18.5 Z"/></g>
<g><path style="opacity:1" fill="#4fdaff" d="M 24.5,32.5 C 22.6565,30.7211 21.9898,28.3878 22.5,25.5C 24.1868,23.8338 26.1868,22.5005 28.5,21.5C 28.8333,22 29.1667,22.5 29.5,23C 25.8407,25.1495 24.174,28.3161 24.5,32.5 Z"/></g>
<g><path style="opacity:1" fill="#a3ecff" d="M 22.5,25.5 C 21.9898,28.3878 22.6565,30.7211 24.5,32.5C 23.791,33.404 22.791,33.7373 21.5,33.5C 21.1936,30.6146 21.5269,27.9479 22.5,25.5 Z"/></g>
<g><path style="opacity:1" fill="#fefffe" d="M 18.5,35.5 C 18.5,37.1667 18.5,38.8333 18.5,40.5C 16.8333,40.5 15.1667,40.5 13.5,40.5C 13.5,38.8333 13.5,37.1667 13.5,35.5C 15.1667,35.5 16.8333,35.5 18.5,35.5 Z"/></g>
<g><path style="opacity:1" fill="#fefffe" d="M 40.5,35.5 C 42.1667,35.5 43.8333,35.5 45.5,35.5C 45.5,37.1667 45.5,38.8333 45.5,40.5C 45.5,38.8333 45.5,37.1667 45.5,35.5C 43.8333,35.5 42.1667,35.5 40.5,35.5 Z"/></g>
<g><path style="opacity:1" fill="#c4f3ff" d="M 18.5,35.5 C 18.8333,35.5 19.1667,35.5 19.5,35.5C 19.5,37.5 19.5,39.5 19.5,41.5C 17.2646,41.7947 15.2646,41.4614 13.5,40.5C 15.1667,40.5 16.8333,40.5 18.5,40.5C 18.5,38.8333 18.5,37.1667 18.5,35.5 Z"/></g>
<g><path style="opacity:1" fill="#c4f3ff" d="M 39.5,35.5 C 39.8333,35.5 40.1667,35.5 40.5,35.5C 40.5,37.1667 40.5,38.8333 40.5,40.5C 42.1667,40.5 43.8333,40.5 45.5,40.5C 43.7354,41.4614 41.7354,41.7947 39.5,41.5C 39.5,39.5 39.5,37.5 39.5,35.5 Z"/></g>
</svg>
