<?xml version="1.0" encoding="UTF-8"?>
<!DOCTYPE svg PUBLIC "-//W3C//DTD SVG 1.1//EN" "http://www.w3.org/Graphics/SVG/1.1/DTD/svg11.dtd">
<svg xmlns="http://www.w3.org/2000/svg" version="1.1" width="60px" height="60px" style="shape-rendering:geometricPrecision; text-rendering:geometricPrecision; image-rendering:optimizeQuality; fill-rule:evenodd; clip-rule:evenodd" xmlns:xlink="http://www.w3.org/1999/xlink">
<g><path style="opacity:0.996" fill="#9fa19f" d="M 0.5,-0.5 C 19.8333,-0.5 39.1667,-0.5 58.5,-0.5C 58.5,0.166667 58.8333,0.5 59.5,0.5C 59.5,19.8333 59.5,39.1667 59.5,58.5C 58.8333,58.5 58.5,58.8333 58.5,59.5C 39.1667,59.5 19.8333,59.5 0.5,59.5C 0.5,58.8333 0.166667,58.5 -0.5,58.5C -0.5,39.1667 -0.5,19.8333 -0.5,0.5C 0.166667,0.5 0.5,0.166667 0.5,-0.5 Z"/></g>
<g><path style="opacity:1" fill="#fafafa" d="M 13.5,9.5 C 22.8419,9.76496 32.1752,9.76496 41.5,9.5C 44.1113,9.55592 46.278,10.5559 48,12.5C 48.5064,19.7505 48.8397,27.0838 49,34.5C 43.9455,47.1931 34.7788,51.6931 21.5,48C 10.7207,41.5978 7.38733,32.4311 11.5,20.5C 9.76237,16.3098 10.429,12.6432 13.5,9.5 Z"/></g>
<g><path style="opacity:1" fill="#a0a1a0" d="M 24.5,15.5 C 38.1212,14.034 44.2879,20.034 43,33.5C 41.8333,38.6667 38.6667,41.8333 33.5,43C 19.8588,44.3568 14.0255,38.1901 16,24.5C 17.6878,20.3148 20.5212,17.3148 24.5,15.5 Z"/></g>
</svg>
