<?xml version="1.0" encoding="UTF-8"?>
<!DOCTYPE svg PUBLIC "-//W3C//DTD SVG 1.1//EN" "http://www.w3.org/Graphics/SVG/1.1/DTD/svg11.dtd">
<svg xmlns="http://www.w3.org/2000/svg" version="1.1" width="60px" height="60px" style="shape-rendering:geometricPrecision; text-rendering:geometricPrecision; image-rendering:optimizeQuality; fill-rule:evenodd; clip-rule:evenodd" xmlns:xlink="http://www.w3.org/1999/xlink">
<g><path style="opacity:0.997" fill="#9142cb" d="M 0.5,-0.5 C 19.8333,-0.5 39.1667,-0.5 58.5,-0.5C 58.5,0.166667 58.8333,0.5 59.5,0.5C 59.5,19.8333 59.5,39.1667 59.5,58.5C 58.8333,58.5 58.5,58.8333 58.5,59.5C 39.1667,59.5 19.8333,59.5 0.5,59.5C 0.5,58.8333 0.166667,58.5 -0.5,58.5C -0.5,39.1667 -0.5,19.8333 -0.5,0.5C 0.166667,0.5 0.5,0.166667 0.5,-0.5 Z"/></g>
<g><path style="opacity:1" fill="#fcfafe" d="M 19.5,10.5 C 27.8285,9.66358 30.9952,13.3302 29,21.5C 24.6667,26.8333 20.3333,26.8333 16,21.5C 14.6631,16.8721 15.8298,13.2054 19.5,10.5 Z"/></g>
<g><path style="opacity:1" fill="#faf6fd" d="M 35.5,23.5 C 42.8965,23.6148 44.2298,26.4481 39.5,32C 36.7019,32.5608 34.8686,31.3941 34,28.5C 33.3872,26.5048 33.8872,24.8381 35.5,23.5 Z"/></g>
<g><path style="opacity:1" fill="#fbf8fd" d="M 27.5,34.5 C 29.6547,34.372 31.6547,34.872 33.5,36C 35.5509,40.7497 39.2176,42.7497 44.5,42C 46.4211,42.3603 48.0878,43.1936 49.5,44.5C 47.5839,46.3173 45.2506,47.484 42.5,48C 33.8333,48.6667 25.1667,48.6667 16.5,48C 13.7494,47.484 11.4161,46.3173 9.5,44.5C 10.0253,43.8076 10.6919,43.3076 11.5,43C 15.1432,42.0278 18.8099,41.1945 22.5,40.5C 23.7197,38.0189 25.3863,36.0189 27.5,34.5 Z"/></g>
</svg>
