<?xml version="1.0" encoding="UTF-8"?>
<!DOCTYPE svg PUBLIC "-//W3C//DTD SVG 1.1//EN" "http://www.w3.org/Graphics/SVG/1.1/DTD/svg11.dtd">
<svg xmlns="http://www.w3.org/2000/svg" version="1.1" width="60px" height="60px" style="shape-rendering:geometricPrecision; text-rendering:geometricPrecision; image-rendering:optimizeQuality; fill-rule:evenodd; clip-rule:evenodd" xmlns:xlink="http://www.w3.org/1999/xlink">
<g><path style="opacity:0.997" fill="#ef4279" d="M 0.5,-0.5 C 19.8333,-0.5 39.1667,-0.5 58.5,-0.5C 58.5,0.166667 58.8333,0.5 59.5,0.5C 59.5,19.8333 59.5,39.1667 59.5,58.5C 58.8333,58.5 58.5,58.8333 58.5,59.5C 39.1667,59.5 19.8333,59.5 0.5,59.5C 0.5,58.8333 0.166667,58.5 -0.5,58.5C -0.5,39.1667 -0.5,19.8333 -0.5,0.5C 0.166667,0.5 0.5,0.166667 0.5,-0.5 Z"/></g>
<g><path style="opacity:1" fill="#fef6f8" d="M 26.5,12.5 C 28.5273,12.3379 30.5273,12.5045 32.5,13C 34.8967,17.2024 38.5634,19.369 43.5,19.5C 44.5529,20.4383 45.2196,21.605 45.5,23C 42.8333,27.3333 42.8333,31.6667 45.5,36C 45.2645,36.8732 44.9312,37.7065 44.5,38.5C 41.6594,39.9746 38.6594,41.1413 35.5,42C 31.5,48 27.5,48 23.5,42C 20.8949,40.9787 18.2283,40.1454 15.5,39.5C 14.4471,38.5617 13.7804,37.395 13.5,36C 16.1667,31.6667 16.1667,27.3333 13.5,23C 13.7355,22.1268 14.0688,21.2935 14.5,20.5C 17.3406,19.0254 20.3406,17.8587 23.5,17C 24.8825,15.7292 25.8825,14.2292 26.5,12.5 Z"/></g>
<g><path style="opacity:1" fill="#ef467b" d="M 28.5,17.5 C 31.3357,20.0877 34.669,21.921 38.5,23C 39.0219,23.5613 39.3552,24.228 39.5,25C 38.5085,28.5008 38.3418,32.0008 39,35.5C 35.1915,36.4736 32.0248,38.4736 29.5,41.5C 26.5051,38.3099 23.1717,35.8099 19.5,34C 20.4915,30.4992 20.6582,26.9992 20,23.5C 22.74,22.856 25.24,21.6893 27.5,20C 28.2524,19.3292 28.5858,18.4959 28.5,17.5 Z"/></g>
</svg>
