<?xml version="1.0" encoding="UTF-8"?>
<!DOCTYPE svg PUBLIC "-//W3C//DTD SVG 1.1//EN" "http://www.w3.org/Graphics/SVG/1.1/DTD/svg11.dtd">
<svg xmlns="http://www.w3.org/2000/svg" version="1.1" width="60px" height="60px" style="shape-rendering:geometricPrecision; text-rendering:geometricPrecision; image-rendering:optimizeQuality; fill-rule:evenodd; clip-rule:evenodd" xmlns:xlink="http://www.w3.org/1999/xlink">
<g><path style="opacity:0.996" fill="#afa981" d="M 0.5,-0.5 C 19.8333,-0.5 39.1667,-0.5 58.5,-0.5C 58.5,0.166667 58.8333,0.5 59.5,0.5C 59.5,19.8333 59.5,39.1667 59.5,58.5C 58.8333,58.5 58.5,58.8333 58.5,59.5C 39.1667,59.5 19.8333,59.5 0.5,59.5C 0.5,58.8333 0.166667,58.5 -0.5,58.5C -0.5,39.1667 -0.5,19.8333 -0.5,0.5C 0.166667,0.5 0.5,0.166667 0.5,-0.5 Z"/></g>
<g><path style="opacity:1" fill="#fbfaf9" d="M 39.5,15.5 C 38.1266,15.3433 36.7932,15.51 35.5,16C 38,18.5 40.5,21 43,23.5C 42.904,21.6194 43.0707,19.9527 43.5,18.5C 44.4577,19.9616 45.6244,21.2949 47,22.5C 47.8289,27.533 47.6623,32.533 46.5,37.5C 45.1861,38.3128 44.0195,39.3128 43,40.5C 42.8333,40.1667 42.6667,39.8333 42.5,39.5C 43.6538,36.8985 44.1538,34.2318 44,31.5C 39.8333,35.6667 35.6667,39.8333 31.5,44C 34.5425,43.8192 37.5425,43.4859 40.5,43C 39.1667,44.3333 37.8333,45.6667 36.5,47C 31.8333,47.6667 27.1667,47.6667 22.5,47C 21.1667,45.6667 19.8333,44.3333 18.5,43C 21.3275,44.0915 24.3275,44.4248 27.5,44C 23.3333,39.8333 19.1667,35.6667 15,31.5C 14.8462,34.2318 15.3462,36.8985 16.5,39.5C 16.3333,39.8333 16.1667,40.1667 16,40.5C 14.9805,39.3128 13.8139,38.3128 12.5,37.5C 11.3377,32.533 11.1711,27.533 12,22.5C 15.5,19 19,15.5 22.5,12C 27.533,11.1711 32.533,11.3377 37.5,12.5C 38.1925,13.5178 38.8592,14.5178 39.5,15.5 Z"/></g>
<g><path style="opacity:1" fill="#c0b996" d="M 39.5,15.5 C 41.1216,16.1224 42.4549,17.1224 43.5,18.5C 43.0707,19.9527 42.904,21.6194 43,23.5C 40.5,21 38,18.5 35.5,16C 36.7932,15.51 38.1266,15.3433 39.5,15.5 Z"/></g>
</svg>
