<?xml version="1.0" encoding="UTF-8"?>
<!DOCTYPE svg PUBLIC "-//W3C//DTD SVG 1.1//EN" "http://www.w3.org/Graphics/SVG/1.1/DTD/svg11.dtd">
<svg xmlns="http://www.w3.org/2000/svg" version="1.1" width="60px" height="60px" style="shape-rendering:geometricPrecision; text-rendering:geometricPrecision; image-rendering:optimizeQuality; fill-rule:evenodd; clip-rule:evenodd" xmlns:xlink="http://www.w3.org/1999/xlink">
<g><path style="opacity:0.997" fill="#61a1b8" d="M 0.5,-0.5 C 19.8333,-0.5 39.1667,-0.5 58.5,-0.5C 58.5,0.166667 58.8333,0.5 59.5,0.5C 59.5,19.8333 59.5,39.1667 59.5,58.5C 58.8333,58.5 58.5,58.8333 58.5,59.5C 39.1667,59.5 19.8333,59.5 0.5,59.5C 0.5,58.8333 0.166667,58.5 -0.5,58.5C -0.5,39.1667 -0.5,19.8333 -0.5,0.5C 0.166667,0.5 0.5,0.166667 0.5,-0.5 Z"/></g>
<g><path style="opacity:1" fill="#f5f9fa" d="M 18.5,12.5 C 25.8635,12.1694 33.1968,12.5027 40.5,13.5C 36.7184,16.1396 32.5517,18.1396 28,19.5C 27.8771,22.614 27.7104,25.614 27.5,28.5C 22.6795,30.2456 17.8462,31.9122 13,33.5C 14.2039,26.3977 16.0373,19.3977 18.5,12.5 Z"/></g>
<g><path style="opacity:1" fill="#6aa6ba" d="M 20.5,14.5 C 21.5,14.5 22.5,14.5 23.5,14.5C 23.5,15.8333 23.5,17.1667 23.5,18.5C 22.5,18.5 21.5,18.5 20.5,18.5C 20.5,17.1667 20.5,15.8333 20.5,14.5 Z"/></g>
<g><path style="opacity:1" fill="#f8fafb" d="M 40.5,18.5 C 41.7498,18.5774 42.5831,19.244 43,20.5C 44.4509,24.4061 45.6176,28.4061 46.5,32.5C 44.1463,35.8515 41.1463,38.5181 37.5,40.5C 34.3296,34.6504 32.3296,28.317 31.5,21.5C 34.6702,20.7345 37.6702,19.7345 40.5,18.5 Z"/></g>
<g><path style="opacity:1" fill="#70aabf" d="M 36.5,22.5 C 41.394,23.5396 41.7274,25.5396 37.5,28.5C 34.025,26.9158 33.6917,24.9158 36.5,22.5 Z"/></g>
<g><path style="opacity:1" fill="#f9fbfc" d="M 26.5,31.5 C 28.1238,31.3601 29.2904,32.0267 30,33.5C 30.9749,36.7603 32.1416,39.927 33.5,43C 32.0031,45.207 30.0031,45.8736 27.5,45C 23.5,42 19.5,39 15.5,36C 19.2953,34.644 22.9619,33.144 26.5,31.5 Z"/></g>
</svg>
