<?xml version="1.0" encoding="UTF-8"?>
<!DOCTYPE svg PUBLIC "-//W3C//DTD SVG 1.1//EN" "http://www.w3.org/Graphics/SVG/1.1/DTD/svg11.dtd">
<svg xmlns="http://www.w3.org/2000/svg" version="1.1" width="60px" height="60px" style="shape-rendering:geometricPrecision; text-rendering:geometricPrecision; image-rendering:optimizeQuality; fill-rule:evenodd; clip-rule:evenodd" xmlns:xlink="http://www.w3.org/1999/xlink">
<g><path style="opacity:0.997" fill="#2980ef" d="M 0.5,-0.5 C 19.8333,-0.5 39.1667,-0.5 58.5,-0.5C 58.5,0.166667 58.8333,0.5 59.5,0.5C 59.5,19.8333 59.5,39.1667 59.5,58.5C 58.8333,58.5 58.5,58.8333 58.5,59.5C 39.1667,59.5 19.8333,59.5 0.5,59.5C 0.5,58.8333 0.166667,58.5 -0.5,58.5C -0.5,39.1667 -0.5,19.8333 -0.5,0.5C 0.166667,0.5 0.5,0.166667 0.5,-0.5 Z"/></g>
<g><path style="opacity:1" fill="#f6f9fe" d="M 28.5,9.5 C 29.7498,9.57735 30.5831,10.244 31,11.5C 32,14.8333 33,18.1667 34,21.5C 37.6316,26.2996 40.1316,31.633 41.5,37.5C 39.754,47.0739 34.0873,50.9072 24.5,49C 18.6151,45.3964 16.4484,40.2298 18,33.5C 20.1501,29.3702 22.4834,25.3702 25,21.5C 26.4626,17.578 27.6293,13.578 28.5,9.5 Z"/></g>
<g><path style="opacity:1" fill="#3b87ef" d="M 20.5,39.5 C 25.9855,41.9954 31.4855,41.9954 37,39.5C 38.345,41.4426 37.845,43.2759 35.5,45C 31.4708,46.9127 27.4708,46.9127 23.5,45C 21.84,43.5123 20.84,41.679 20.5,39.5 Z"/></g>
</svg>
